<svg width="21" height="21" viewBox="0 0 21 21" fill="none" xmlns="http://www.w3.org/2000/svg">
<path fill-rule="evenodd" clip-rule="evenodd" d="M12.6332 8.36679C12.6332 10.685 10.736 12.5757 8.41775 12.5757C6.10608 12.5757 4.20886 10.685 4.20886 8.36679C4.20886 6.05381 6.10608 4.1579 8.41775 4.1579C10.736 4.1579 12.6332 6.05381 12.6332 8.36679ZM0 18.8923C0 16.0504 5.5759 14.6834 8.41779 14.6834C11.261 14.6834 16.8422 16.0504 16.8422 18.8923V21H0V18.8923Z" fill="#E8E8E8"/>
<path d="M16.8421 7.3158C17.1405 7.3158 17.3858 7.08809 17.4136 6.79693L17.4163 6.74163L17.4161 4.73235L19.4258 4.73206C19.7429 4.73206 20 4.475 20 4.1579C20 3.85945 19.7723 3.61419 19.4811 3.58637L19.4258 3.58374L17.4161 3.58388L17.4163 1.57417C17.4163 1.25707 17.1592 1.00001 16.8421 1.00001C16.5437 1.00001 16.2984 1.22771 16.2706 1.51887L16.2679 1.57417L16.2676 3.58388L14.2584 3.58374C13.9413 3.58374 13.6842 3.8408 13.6842 4.1579C13.6842 4.45635 13.9119 4.70161 14.2031 4.72944L14.2584 4.73206L16.2676 4.73235L16.2679 6.74163C16.2679 7.05873 16.525 7.3158 16.8421 7.3158Z" fill="#E8E8E8" stroke="#E8E8E8"/>
</svg>
