<svg width="25" height="25" viewBox="0 0 25 25" fill="none" xmlns="http://www.w3.org/2000/svg">
<circle cx="12.5" cy="12.5" r="12.5" fill="#D8292F"/>
<path d="M8.24609 18.5215H14.1641C14.7656 18.5215 15.2207 18.3652 15.5293 18.0527C15.8418 17.7402 15.998 17.2812 15.998 16.6758V14.209H14.8262V16.582C14.8262 16.832 14.7617 17.0215 14.6328 17.1504C14.5039 17.2832 14.3086 17.3496 14.0469 17.3496H8.36328C8.10156 17.3496 7.90625 17.2832 7.77734 17.1504C7.65234 17.0215 7.58984 16.832 7.58984 16.582V8.41992C7.58984 8.16992 7.65234 7.98047 7.77734 7.85156C7.90625 7.71875 8.10156 7.65234 8.36328 7.65234H14.0469C14.3086 7.65234 14.5039 7.71875 14.6328 7.85156C14.7617 7.98047 14.8262 8.16992 14.8262 8.41992V10.7988H15.998V8.33203C15.998 7.72266 15.8418 7.26172 15.5293 6.94922C15.2207 6.63281 14.7656 6.47461 14.1641 6.47461H8.24609C7.64844 6.47461 7.19336 6.63281 6.88086 6.94922C6.56836 7.26172 6.41211 7.72266 6.41211 8.33203V16.6758C6.41211 17.2812 6.56836 17.7402 6.88086 18.0527C7.19336 18.3652 7.64844 18.5215 8.24609 18.5215ZM11.8965 13.043H17.4336L18.2539 12.9961L17.8438 13.3301L17.041 14.0801C16.9355 14.1738 16.8828 14.2949 16.8828 14.4434C16.8828 14.5723 16.9258 14.6855 17.0117 14.7832C17.0977 14.877 17.209 14.9238 17.3457 14.9238C17.4707 14.9238 17.584 14.873 17.6855 14.7715L19.4727 12.9141C19.543 12.8438 19.5918 12.7754 19.6191 12.709C19.6465 12.6387 19.6602 12.5684 19.6602 12.498C19.6602 12.4238 19.6465 12.3535 19.6191 12.2871C19.5918 12.2168 19.543 12.1484 19.4727 12.082L17.6855 10.2246C17.584 10.123 17.4707 10.0723 17.3457 10.0723C17.209 10.0723 17.0977 10.1191 17.0117 10.2129C16.9258 10.3066 16.8828 10.4199 16.8828 10.5527C16.8828 10.6973 16.9355 10.8184 17.041 10.916L17.8438 11.666L18.2539 12L17.4336 11.9531H11.8965C11.752 11.9531 11.625 12.0059 11.5156 12.1113C11.4102 12.2168 11.3574 12.3457 11.3574 12.498C11.3574 12.6465 11.4102 12.7754 11.5156 12.8848C11.625 12.9902 11.752 13.043 11.8965 13.043Z" fill="white"/>
</svg>
