<svg width="25" height="25" viewBox="0 0 25 25" fill="none" xmlns="http://www.w3.org/2000/svg">
<circle cx="12.5" cy="12.5" r="12.5" fill="white"/>
<path d="M12.494 25C19.3451 25 25 19.3451 25 12.494C25 5.65491 19.333 0 12.4819 0C5.64282 0 0 5.65491 0 12.494C0 19.3451 5.65491 25 12.494 25ZM9.40068 19.7438C8.49444 19.7438 7.96278 19.2605 7.92653 18.3543L7.50362 8.79652H6.57322C6.2349 8.79652 5.95698 8.54277 5.96907 8.20445C5.96907 7.85404 6.2349 7.58821 6.57322 7.58821H9.42484V6.68197C9.42484 5.61866 10.1257 4.95408 11.2977 4.95408H13.6539C14.826 4.95408 15.551 5.61866 15.551 6.68197V7.58821H18.3784C18.7289 7.58821 19.0068 7.85404 18.9947 8.20445C18.9826 8.54277 18.7289 8.79652 18.3784 8.79652H17.4843L17.0614 18.3543C17.0251 19.2605 16.4693 19.7438 15.5752 19.7438H9.40068ZM10.7782 7.58821H14.1735L14.1614 6.7303C14.1614 6.41614 13.9439 6.21073 13.6056 6.21073H11.3461C11.0077 6.21073 10.7902 6.41614 10.7782 6.7303V7.58821ZM10.3673 17.8226C10.6452 17.8226 10.8265 17.6414 10.8265 17.3876L10.5848 10.2707C10.5848 9.99275 10.3915 9.82359 10.1257 9.82359C9.82359 9.82359 9.65442 9.99275 9.6665 10.2827L9.89608 17.3876C9.90817 17.6414 10.1015 17.8226 10.3673 17.8226ZM12.4698 17.8226C12.7598 17.8226 12.9531 17.6414 12.9531 17.3876V10.2707C12.9531 9.99275 12.7598 9.82359 12.4698 9.82359C12.1798 9.82359 12.0106 9.99275 12.0106 10.2707V17.3876C12.0106 17.6414 12.1798 17.8226 12.4698 17.8226ZM14.5723 17.8226C14.8381 17.8226 15.0314 17.6414 15.0435 17.3876L15.2731 10.2827C15.2852 9.99275 15.116 9.82359 14.826 9.82359C14.5481 9.82359 14.3548 9.99275 14.3548 10.2707L14.1131 17.3876C14.1131 17.6414 14.2943 17.8226 14.5723 17.8226Z" fill="#D8292F"/>
</svg>
