<svg width="13" height="15" viewBox="0 0 13 15" fill="none" xmlns="http://www.w3.org/2000/svg">
<path d="M1.11756 12.1013H11.8824C12.5759 12.1013 13 11.7073 13 11.1163C13 10.3705 12.3537 9.7303 11.7478 9.12523C11.2698 8.63978 11.1621 7.62664 11.0746 6.6909C10.9669 4.11585 10.2465 2.30066 8.50285 1.64634C8.22683 0.717636 7.49301 0 6.49663 0C5.50699 0 4.77317 0.717636 4.49042 1.64634C2.7535 2.30066 2.02641 4.11585 1.92543 6.6909C1.83791 7.62664 1.72346 8.63978 1.2522 9.12523C0.646297 9.7303 0 10.3705 0 11.1163C0 11.7073 0.424133 12.1013 1.11756 12.1013ZM6.49663 15C7.69498 15 8.56344 14.1065 8.65096 13.0863H4.34904C4.43656 14.1065 5.30502 15 6.49663 15Z" fill="#191919"/>
</svg>
