<svg width="1044" height="1044" viewBox="0 0 1044 1044" fill="none" xmlns="http://www.w3.org/2000/svg">
<rect width="1044" height="1044" fill="#113572"/>
<rect width="1044" height="1044" fill="url(#paint0_linear_4022_445)"/>
<g style="mix-blend-mode:overlay" filter="url(#filter0_f_4022_445)">
<path fill-rule="evenodd" clip-rule="evenodd" d="M236.484 309.542L373.271 196.813L373.266 309.542H486.095V558.922C486.095 674.146 382.02 753.555 236.482 760.458L236.482 309.542H236.484Z" fill="#092555"/>
<path fill-rule="evenodd" clip-rule="evenodd" d="M800.518 760.458V309.542C654.98 316.445 550.905 395.854 550.905 511.078V760.458H800.518ZM800.518 760.459L663.729 873.186L663.735 760.459H800.518Z" fill="#092555"/>
</g>
<g filter="url(#filter1_ii_4022_445)">
<path fill-rule="evenodd" clip-rule="evenodd" d="M240.002 296.729L376.789 184L376.784 296.729H489.613V546.108C489.613 661.333 385.538 740.741 240 747.644L240 296.729H240.002Z" fill="#FFFEFD"/>
<path fill-rule="evenodd" clip-rule="evenodd" d="M240.002 296.729L376.789 184L376.784 296.729H489.613V546.108C489.613 661.333 385.538 740.741 240 747.644L240 296.729H240.002Z" fill="url(#paint1_linear_4022_445)" fill-opacity="0.25"/>
</g>
<g filter="url(#filter2_i_4022_445)">
<path fill-rule="evenodd" clip-rule="evenodd" d="M804.036 747.644V296.728C658.497 303.631 554.423 383.04 554.423 498.265V747.644H804.036ZM804.036 747.645L667.247 860.372L667.253 747.645H804.036Z" fill="#FFFEFD"/>
<path fill-rule="evenodd" clip-rule="evenodd" d="M804.036 747.644V296.728C658.497 303.631 554.423 383.04 554.423 498.265V747.644H804.036ZM804.036 747.645L667.247 860.372L667.253 747.645H804.036Z" fill="url(#paint2_linear_4022_445)" fill-opacity="0.25"/>
</g>
<defs>
<filter id="filter0_f_4022_445" x="206.482" y="166.813" width="624.037" height="736.372" filterUnits="userSpaceOnUse" color-interpolation-filters="sRGB">
<feFlood flood-opacity="0" result="BackgroundImageFix"/>
<feBlend mode="normal" in="SourceGraphic" in2="BackgroundImageFix" result="shape"/>
<feGaussianBlur stdDeviation="15" result="effect1_foregroundBlur_4022_445"/>
</filter>
<filter id="filter1_ii_4022_445" x="235" y="181" width="254.613" height="574.644" filterUnits="userSpaceOnUse" color-interpolation-filters="sRGB">
<feFlood flood-opacity="0" result="BackgroundImageFix"/>
<feBlend mode="normal" in="SourceGraphic" in2="BackgroundImageFix" result="shape"/>
<feColorMatrix in="SourceAlpha" type="matrix" values="0 0 0 0 0 0 0 0 0 0 0 0 0 0 0 0 0 0 127 0" result="hardAlpha"/>
<feOffset dx="-5" dy="8"/>
<feGaussianBlur stdDeviation="10"/>
<feComposite in2="hardAlpha" operator="arithmetic" k2="-1" k3="1"/>
<feColorMatrix type="matrix" values="0 0 0 0 0.835294 0 0 0 0 0.807843 0 0 0 0 0.733333 0 0 0 0.94 0"/>
<feBlend mode="soft-light" in2="shape" result="effect1_innerShadow_4022_445"/>
<feColorMatrix in="SourceAlpha" type="matrix" values="0 0 0 0 0 0 0 0 0 0 0 0 0 0 0 0 0 0 127 0" result="hardAlpha"/>
<feOffset dy="-3"/>
<feGaussianBlur stdDeviation="12.5"/>
<feComposite in2="hardAlpha" operator="arithmetic" k2="-1" k3="1"/>
<feColorMatrix type="matrix" values="0 0 0 0 0 0 0 0 0 0 0 0 0 0 0 0 0 0 0.2 0"/>
<feBlend mode="multiply" in2="effect1_innerShadow_4022_445" result="effect2_innerShadow_4022_445"/>
</filter>
<filter id="filter2_i_4022_445" x="545.423" y="296.728" width="258.613" height="575.644" filterUnits="userSpaceOnUse" color-interpolation-filters="sRGB">
<feFlood flood-opacity="0" result="BackgroundImageFix"/>
<feBlend mode="normal" in="SourceGraphic" in2="BackgroundImageFix" result="shape"/>
<feColorMatrix in="SourceAlpha" type="matrix" values="0 0 0 0 0 0 0 0 0 0 0 0 0 0 0 0 0 0 127 0" result="hardAlpha"/>
<feOffset dx="-9" dy="12"/>
<feGaussianBlur stdDeviation="11"/>
<feComposite in2="hardAlpha" operator="arithmetic" k2="-1" k3="1"/>
<feColorMatrix type="matrix" values="0 0 0 0 0.847059 0 0 0 0 0.823529 0 0 0 0 0.764706 0 0 0 0.73 0"/>
<feBlend mode="overlay" in2="shape" result="effect1_innerShadow_4022_445"/>
</filter>
<linearGradient id="paint0_linear_4022_445" x1="1085.38" y1="-63.5" x2="-504.7" y2="1552.94" gradientUnits="userSpaceOnUse">
<stop stop-color="#0B2E69" stop-opacity="0"/>
<stop offset="1"/>
</linearGradient>
<linearGradient id="paint1_linear_4022_445" x1="10.0181" y1="776.686" x2="468.018" y2="370.186" gradientUnits="userSpaceOnUse">
<stop/>
<stop offset="1" stop-opacity="0"/>
</linearGradient>
<linearGradient id="paint2_linear_4022_445" x1="347.018" y1="860.186" x2="804.518" y2="367.686" gradientUnits="userSpaceOnUse">
<stop/>
<stop offset="1" stop-opacity="0"/>
</linearGradient>
</defs>
</svg>
