<svg width="21" height="21" viewBox="0 0 21 21" fill="none" xmlns="http://www.w3.org/2000/svg">
<path fill-rule="evenodd" clip-rule="evenodd" d="M8.69579 3.60883C3.89333 3.60883 0.000160217 7.50199 0.000160217 12.3045C0.000160217 17.1069 3.89333 21.0001 8.69579 21.0001C13.4983 21.0001 17.3914 17.1069 17.3914 12.3045C17.3914 7.50199 13.4983 3.60883 8.69579 3.60883ZM5.28146 15.0001C6.14655 16.1081 7.26399 16.6483 8.6958 16.6483C10.1276 16.6483 11.245 16.1081 12.1101 15.0001C12.3564 14.6846 12.8118 14.6286 13.1272 14.8749C13.4427 15.1212 13.4987 15.5765 13.2525 15.892C12.1115 17.3532 10.572 18.0976 8.6958 18.0976C6.81962 18.0976 5.28006 17.3532 4.13914 15.892C3.89285 15.5765 3.94891 15.1212 4.26435 14.8749C4.57979 14.6286 5.03517 14.6846 5.28146 15.0001ZM11.5943 9.40591C12.1946 9.40591 12.6813 10.0548 12.6813 10.8552C12.6813 11.6556 12.1946 12.3044 11.5943 12.3044C10.994 12.3044 10.5074 11.6556 10.5074 10.8552C10.5074 10.0548 10.994 9.40591 11.5943 9.40591ZM5.79729 9.40591C6.39759 9.40591 6.88424 10.0548 6.88424 10.8552C6.88424 11.6556 6.39759 12.3044 5.79729 12.3044C5.19698 12.3044 4.71033 11.6556 4.71033 10.8552C4.71033 10.0548 5.19698 9.40591 5.79729 9.40591Z" fill="#E8E8E8"/>
<path d="M17.3915 6.21747C17.638 6.21747 17.8406 6.02936 17.8636 5.78884L17.8658 5.74316L17.8657 4.08332L19.5258 4.08309C19.7878 4.08309 20.0002 3.87073 20.0002 3.60878C20.0002 3.36224 19.812 3.15963 19.5715 3.13664L19.5258 3.13447L17.8657 3.13459L17.8658 1.4744C17.8658 1.21245 17.6534 1.00009 17.3915 1.00009C17.1449 1.00009 16.9423 1.1882 16.9193 1.42872L16.9172 1.4744L16.9169 3.13459L15.2571 3.13447C14.9951 3.13447 14.7828 3.34683 14.7828 3.60878C14.7828 3.85532 14.9709 4.05793 15.2114 4.08092L15.2571 4.08309L16.9169 4.08332L16.9172 5.74316C16.9172 6.00511 17.1295 6.21747 17.3915 6.21747Z" fill="#E8E8E8" stroke="#E8E8E8"/>
</svg>
