<svg width="25" height="25" viewBox="0 0 25 25" fill="none" xmlns="http://www.w3.org/2000/svg">
<circle cx="12.5" cy="12.5" r="12.5" fill="#D8292F"/>
<path d="M6.83691 18.2988H15.4092C15.7783 18.2988 16.0677 18.2168 16.2773 18.0527C16.487 17.8887 16.5918 17.6585 16.5918 17.3623C16.5918 16.9476 16.4642 16.5124 16.209 16.0566C15.9583 15.5964 15.5938 15.168 15.1152 14.7715C14.6367 14.3704 14.0602 14.0446 13.3857 13.7939C12.7158 13.5433 11.9616 13.418 11.123 13.418C10.2845 13.418 9.52799 13.5433 8.85352 13.7939C8.17904 14.0446 7.60254 14.3704 7.12402 14.7715C6.65007 15.168 6.28548 15.5964 6.03027 16.0566C5.77507 16.5124 5.64746 16.9476 5.64746 17.3623C5.64746 17.6585 5.75228 17.8887 5.96191 18.0527C6.17155 18.2168 6.46322 18.2988 6.83691 18.2988ZM11.123 12.2764C11.597 12.2764 12.0322 12.1488 12.4287 11.8936C12.8252 11.6383 13.1419 11.2943 13.3789 10.8613C13.6204 10.4238 13.7412 9.93392 13.7412 9.3916C13.7412 8.86296 13.6204 8.38672 13.3789 7.96289C13.1419 7.53906 12.8252 7.2041 12.4287 6.95801C12.0322 6.71191 11.597 6.58887 11.123 6.58887C10.6536 6.58887 10.2184 6.71419 9.81738 6.96484C9.4209 7.21549 9.10189 7.55501 8.86035 7.9834C8.62337 8.40723 8.50716 8.88118 8.51172 9.40527C8.51172 9.93848 8.63021 10.4238 8.86719 10.8613C9.10417 11.2943 9.4209 11.6383 9.81738 11.8936C10.2139 12.1488 10.6491 12.2764 11.123 12.2764ZM16.5986 12.1396C16.7764 12.1396 16.9222 12.0781 17.0361 11.9551L18.6836 10.3076L20.3447 11.9551C20.4632 12.0781 20.6113 12.1396 20.7891 12.1396C20.9577 12.1396 21.1012 12.0804 21.2197 11.9619C21.3382 11.8434 21.3975 11.6999 21.3975 11.5312C21.3975 11.3672 21.3359 11.2214 21.2129 11.0938L19.5586 9.43945L21.2197 7.77832C21.3428 7.65527 21.4043 7.514 21.4043 7.35449C21.4043 7.18132 21.3428 7.03548 21.2197 6.91699C21.1012 6.7985 20.9577 6.73926 20.7891 6.73926C20.625 6.73926 20.4792 6.80078 20.3516 6.92383L18.6836 8.57812L17.0293 6.93066C16.9154 6.81217 16.7718 6.75293 16.5986 6.75293C16.4255 6.75293 16.2796 6.81217 16.1611 6.93066C16.0426 7.0446 15.9834 7.18587 15.9834 7.35449C15.9834 7.52311 16.0449 7.66439 16.168 7.77832L17.8223 9.43945L16.168 11.1006C16.0449 11.2191 15.9834 11.3626 15.9834 11.5312C15.9834 11.6999 16.0426 11.8434 16.1611 11.9619C16.2796 12.0804 16.4255 12.1396 16.5986 12.1396Z" fill="white"/>
</svg>
