<svg width="25" height="25" viewBox="0 0 25 25" fill="none" xmlns="http://www.w3.org/2000/svg">
<circle cx="12.5" cy="12.5" r="12.5" fill="#FCB828"/>
<path fill-rule="evenodd" clip-rule="evenodd" d="M18.6512 8.03848C19.1173 7.57083 19.1163 6.81497 18.6489 6.34858L18.5614 6.26936C18.0918 5.88464 17.3972 5.91224 16.96 6.35085L11.1734 12.1564C10.6554 12.676 10.2869 13.325 10.1062 14.0354L9.86719 14.9755L9.87207 15.0117C9.88798 15.0694 9.94096 15.1118 10.0039 15.1118L10.919 14.9022C11.6732 14.7295 12.363 14.3473 12.9086 13.7998L18.6512 8.03848ZM11.8084 8.5C11.8084 8.08579 11.4726 7.75 11.0584 7.75H8.22087L8.09484 7.75351C6.92693 7.8187 6 8.78443 6 9.96619V16.7852L6.00352 16.911C6.06885 18.0765 7.03661 19.0014 8.22087 19.0014H15.0543L15.1803 18.9979C16.3483 18.9327 17.2752 17.967 17.2752 16.7852L17.2717 13.9543C17.2712 13.5405 16.9355 13.2052 16.5217 13.2052H16.3168C15.9026 13.2052 15.5668 13.541 15.5668 13.9552V16.7852L15.5621 16.8546C15.5282 17.1043 15.3138 17.2967 15.0543 17.2967H8.22087L8.15132 17.292C7.90117 17.2581 7.70836 17.0442 7.70836 16.7852V9.96619L7.71304 9.8968C7.74698 9.64717 7.96141 9.45476 8.22087 9.45476L11.0593 9.45128C11.4732 9.45077 11.8084 9.11514 11.8084 8.70128V8.5Z" fill="white"/>
</svg>
